# xmcd
#
# Track frame offsets: 
#        150
#        18874
#        39570
#        62573
#        83652
#        100618
#        121576
#        142149
#        166789
#        189103
#        214731
#        231961
#
# Disc length: 3365 seconds
#
# Revision: 15
# Processed by: cddbd v1.5.2PL0 Copyright (c) Steve Scherf et al.
# Submitted via: ExactAudioCopy v1.3
#
DISCID=8d0d230c
DTITLE=Perfume - GAME
DYEAR=2008
DGENRE=Pop
TTITLE0=ポリリズム
TTITLE1=plastic smile
TTITLE2=GAME
TTITLE3=Baby cruising Love
TTITLE4=チョコレイト・ディスコ
TTITLE5=マカロニ
TTITLE6=セラミックガール
TTITLE7=Take me Take me
TTITLE8=シークレットシークレット
TTITLE9=Butterfly
TTITLE10=Twinkle Snow Powdery Snow
TTITLE11=Puppy love
EXTD=YEAR: 2008
EXTT0=
EXTT1=
EXTT2=
EXTT3=
EXTT4=
EXTT5=
EXTT6=
EXTT7=
EXTT8=
EXTT9=
EXTT10=
EXTT11=
PLAYORDER=
